<mxfile host="drawio-plugin" modified="2023-01-11T19:34:39.541Z" agent="5.0 (X11; Linux x86_64) AppleWebKit/537.36 (KHTML, like Gecko) Chrome/104.0.5112.102 Safari/537.36" etag="rtZl3dJc08HlOyC0TMGq" version="20.5.3" type="embed"><diagram id="niHMEKWpn7_BpTSVb3m_" name="Page-1"><mxGraphModel dx="2126" dy="2701" grid="1" gridSize="10" guides="1" tooltips="1" connect="1" arrows="1" fold="1" page="0" pageScale="1" pageWidth="827" pageHeight="1169" background="none" math="0" shadow="0"><root><mxCell id="0"/><mxCell id="1" parent="0"/><mxCell id="node0" value="&lt;p style=&quot;margin:0px;margin-top:4px;text-align:center;&quot;&gt;&lt;b&gt;Conecta4&lt;/b&gt;&lt;/p&gt;&lt;hr size=&quot;1&quot;/&gt;&lt;p style=&quot;margin:0 0 0 4px;line-height:1.6;&quot;&gt;+ conectaCuatro(): void&lt;br/&gt;+ comprobarRangoDeFicha(int): boolean&lt;br/&gt;+ agregarFichaTablero(int): boolean&lt;br/&gt;+ fichasEnVertical(char): boolean&lt;br/&gt;+ fichasEnHorizontal(char): boolean&lt;br/&gt;+ diagonalDerechaInferiorAIzquierdaSuperior2(char): boolean&lt;br/&gt;+ comprobarGanador(): boolean&lt;br/&gt;+ tiempoPartida(): void&lt;br/&gt;+ turnosJugadores(): void&lt;br/&gt;+ imprimirTablero(): void&lt;br/&gt;+ resumenPartida(): void&lt;br/&gt;+ diagonalDerechaInferiorAIzquierdaSuperior1(char): boolean&lt;br/&gt;+ diagonalIzquierdaInferiorADerechaSuperior1(char): boolean&lt;br/&gt;+ opcionesJuego(Scanner): int&lt;br/&gt;+ tableroDeJuego(): void&lt;br/&gt;+ diagonalIzquierdaInferiorADerechaSuperior2(char): boolean&lt;br/&gt;+ comprobarColumnaLlena(int): boolean&lt;/p&gt;" style="verticalAlign=top;align=left;overflow=fill;fontSize=14;fontFamily=Helvetica;html=1;rounded=0;shadow=0;comic=0;labelBackgroundColor=none;strokeWidth=1;" parent="1" vertex="1"><mxGeometry x="-810" y="-1940" width="415" height="430" as="geometry"/></mxCell><mxCell id="2" value="&lt;span style=&quot;font-size: 14px; text-align: left;&quot;&gt;+ conectaCuatro(): void&lt;/span&gt;" style="html=1;" parent="1" vertex="1"><mxGeometry x="-715" y="-1440" width="160" height="50" as="geometry"/></mxCell><mxCell id="51" style="edgeStyle=orthogonalEdgeStyle;rounded=0;orthogonalLoop=1;jettySize=auto;html=1;entryX=0;entryY=0.5;entryDx=0;entryDy=0;" edge="1" parent="1" source="3" target="4"><mxGeometry relative="1" as="geometry"><Array as="points"><mxPoint x="-1090" y="-990"/><mxPoint x="-1090" y="-1115"/></Array></mxGeometry></mxCell><mxCell id="3" value="&lt;span style=&quot;font-size: 14px; text-align: left;&quot;&gt;+ comprobarRangoDeFicha(int): boolean&lt;/span&gt;" style="html=1;" parent="1" vertex="1"><mxGeometry x="-1070" y="-1020" width="290" height="50" as="geometry"/></mxCell><mxCell id="49" style="edgeStyle=orthogonalEdgeStyle;rounded=0;orthogonalLoop=1;jettySize=auto;html=1;entryX=0;entryY=0.5;entryDx=0;entryDy=0;" edge="1" parent="1" source="4" target="12"><mxGeometry relative="1" as="geometry"/></mxCell><mxCell id="4" value="&lt;span style=&quot;font-size: 14px; text-align: left;&quot;&gt;+ agregarFichaTablero(int): boolean&lt;/span&gt;" style="html=1;" parent="1" vertex="1"><mxGeometry x="-1070" y="-1140" width="240" height="50" as="geometry"/></mxCell><mxCell id="29" style="edgeStyle=orthogonalEdgeStyle;rounded=0;orthogonalLoop=1;jettySize=auto;html=1;entryX=1;entryY=0.5;entryDx=0;entryDy=0;" edge="1" parent="1" source="5" target="8"><mxGeometry relative="1" as="geometry"/></mxCell><mxCell id="5" value="&lt;span style=&quot;font-size: 14px; text-align: left;&quot;&gt;+ fichasEnVertical(char): boolean&lt;/span&gt;" style="html=1;" parent="1" vertex="1"><mxGeometry x="-340" y="-1265" width="230" height="50" as="geometry"/></mxCell><mxCell id="36" style="edgeStyle=orthogonalEdgeStyle;rounded=0;orthogonalLoop=1;jettySize=auto;html=1;entryX=1;entryY=0.5;entryDx=0;entryDy=0;" edge="1" parent="1" source="6" target="8"><mxGeometry relative="1" as="geometry"/></mxCell><mxCell id="6" value="&lt;span style=&quot;font-size: 14px; text-align: left;&quot;&gt;+ fichasEnHorizontal(char): boolean&lt;/span&gt;" style="html=1;" parent="1" vertex="1"><mxGeometry x="-340" y="-1165" width="240" height="50" as="geometry"/></mxCell><mxCell id="46" style="edgeStyle=orthogonalEdgeStyle;rounded=0;orthogonalLoop=1;jettySize=auto;html=1;entryX=0.5;entryY=1;entryDx=0;entryDy=0;" edge="1" parent="1" source="8" target="12"><mxGeometry relative="1" as="geometry"/></mxCell><mxCell id="8" value="&lt;span style=&quot;font-size: 14px; text-align: left;&quot;&gt;+ comprobarGanador(): boolean&lt;/span&gt;" style="html=1;" parent="1" vertex="1"><mxGeometry x="-690" y="-1010" width="230" height="50" as="geometry"/></mxCell><mxCell id="30" style="edgeStyle=orthogonalEdgeStyle;rounded=0;orthogonalLoop=1;jettySize=auto;html=1;entryX=1;entryY=0.5;entryDx=0;entryDy=0;" edge="1" parent="1" source="9" target="8"><mxGeometry relative="1" as="geometry"/></mxCell><mxCell id="9" value="&lt;span style=&quot;font-size: 14px; text-align: left;&quot;&gt;+ diagonalDerechaInferiorAIzquierdaSuperior2(char): boolean&lt;/span&gt;" style="html=1;" parent="1" vertex="1"><mxGeometry x="-340" y="-755" width="410" height="50" as="geometry"/></mxCell><mxCell id="47" style="edgeStyle=orthogonalEdgeStyle;rounded=0;orthogonalLoop=1;jettySize=auto;html=1;entryX=0.5;entryY=1;entryDx=0;entryDy=0;" edge="1" parent="1" source="10" target="8"><mxGeometry relative="1" as="geometry"/></mxCell><mxCell id="10" value="&lt;span style=&quot;font-size: 14px; text-align: left;&quot;&gt;+ resumenPartida(): void&lt;/span&gt;" style="html=1;" parent="1" vertex="1"><mxGeometry x="-725" y="-900" width="180" height="50" as="geometry"/></mxCell><mxCell id="22" style="edgeStyle=orthogonalEdgeStyle;rounded=0;orthogonalLoop=1;jettySize=auto;html=1;entryX=0.5;entryY=1;entryDx=0;entryDy=0;" edge="1" parent="1" source="11" target="2"><mxGeometry relative="1" as="geometry"/></mxCell><mxCell id="11" value="&lt;span style=&quot;font-size: 14px; text-align: left;&quot;&gt;+ imprimirTablero(): void&lt;/span&gt;" style="html=1;" parent="1" vertex="1"><mxGeometry x="-920" y="-1220" width="180" height="50" as="geometry"/></mxCell><mxCell id="23" style="edgeStyle=orthogonalEdgeStyle;rounded=0;orthogonalLoop=1;jettySize=auto;html=1;entryX=0.5;entryY=1;entryDx=0;entryDy=0;" edge="1" parent="1" source="12" target="2"><mxGeometry relative="1" as="geometry"/></mxCell><mxCell id="12" value="&lt;span style=&quot;font-size: 14px; text-align: left;&quot;&gt;+ turnosJugadores(): void&lt;/span&gt;" style="html=1;" parent="1" vertex="1"><mxGeometry x="-725" y="-1140" width="180" height="50" as="geometry"/></mxCell><mxCell id="37" style="edgeStyle=orthogonalEdgeStyle;rounded=0;orthogonalLoop=1;jettySize=auto;html=1;entryX=0.5;entryY=1;entryDx=0;entryDy=0;" edge="1" parent="1" source="13" target="10"><mxGeometry relative="1" as="geometry"/></mxCell><mxCell id="13" value="&lt;span style=&quot;font-size: 14px; text-align: left;&quot;&gt;+ tiempoPartida(): void&lt;/span&gt;" style="html=1;" parent="1" vertex="1"><mxGeometry x="-720" y="-760" width="170" height="50" as="geometry"/></mxCell><mxCell id="20" style="edgeStyle=orthogonalEdgeStyle;rounded=0;orthogonalLoop=1;jettySize=auto;html=1;entryX=0.5;entryY=1;entryDx=0;entryDy=0;" edge="1" parent="1" source="14" target="2"><mxGeometry relative="1" as="geometry"><Array as="points"><mxPoint x="-635" y="-1285"/></Array></mxGeometry></mxCell><mxCell id="14" value="&lt;span style=&quot;font-size: 14px; text-align: left;&quot;&gt;+ opcionesJuego(Scanner): int&lt;/span&gt;" style="html=1;" parent="1" vertex="1"><mxGeometry x="-920" y="-1310" width="210" height="50" as="geometry"/></mxCell><mxCell id="31" style="edgeStyle=orthogonalEdgeStyle;rounded=0;orthogonalLoop=1;jettySize=auto;html=1;entryX=1;entryY=0.5;entryDx=0;entryDy=0;" edge="1" parent="1" source="15" target="8"><mxGeometry relative="1" as="geometry"/></mxCell><mxCell id="15" value="&lt;span style=&quot;font-size: 14px; text-align: left;&quot;&gt;+ diagonalDerechaInferiorAIzquierdaSuperior1(char): boolean&lt;/span&gt;" style="html=1;" parent="1" vertex="1"><mxGeometry x="-340" y="-865" width="410" height="50" as="geometry"/></mxCell><mxCell id="33" style="edgeStyle=orthogonalEdgeStyle;rounded=0;orthogonalLoop=1;jettySize=auto;html=1;entryX=1;entryY=0.5;entryDx=0;entryDy=0;" edge="1" parent="1" source="16" target="8"><mxGeometry relative="1" as="geometry"/></mxCell><mxCell id="16" value="&lt;span style=&quot;font-size: 14px; text-align: left;&quot;&gt;+ diagonalIzquierdaInferiorADerechaSuperior1(char): boolean&lt;/span&gt;" style="html=1;" parent="1" vertex="1"><mxGeometry x="-340" y="-1075" width="410" height="50" as="geometry"/></mxCell><mxCell id="32" style="edgeStyle=orthogonalEdgeStyle;rounded=0;orthogonalLoop=1;jettySize=auto;html=1;entryX=1;entryY=0.5;entryDx=0;entryDy=0;" edge="1" parent="1" source="17" target="8"><mxGeometry relative="1" as="geometry"/></mxCell><mxCell id="17" value="&lt;span style=&quot;font-size: 14px; text-align: left;&quot;&gt;+ diagonalIzquierdaInferiorADerechaSuperior2(char): boolean&lt;/span&gt;" style="html=1;" parent="1" vertex="1"><mxGeometry x="-340" y="-975" width="410" height="50" as="geometry"/></mxCell><mxCell id="21" style="edgeStyle=orthogonalEdgeStyle;rounded=0;orthogonalLoop=1;jettySize=auto;html=1;entryX=0.5;entryY=1;entryDx=0;entryDy=0;" edge="1" parent="1" source="18" target="2"><mxGeometry relative="1" as="geometry"/></mxCell><mxCell id="18" value="&lt;span style=&quot;font-size: 14px; text-align: left;&quot;&gt;+ tableroDeJuego(): void&lt;/span&gt;" style="html=1;" parent="1" vertex="1"><mxGeometry x="-540" y="-1310" width="180" height="50" as="geometry"/></mxCell><mxCell id="50" style="edgeStyle=orthogonalEdgeStyle;rounded=0;orthogonalLoop=1;jettySize=auto;html=1;entryX=0;entryY=0.5;entryDx=0;entryDy=0;" edge="1" parent="1" source="19" target="4"><mxGeometry relative="1" as="geometry"><Array as="points"><mxPoint x="-1090" y="-900"/><mxPoint x="-1090" y="-1115"/></Array></mxGeometry></mxCell><mxCell id="19" value="&lt;span style=&quot;font-size: 14px; text-align: left;&quot;&gt;+ comprobarColumnaLlena(int): boolean&lt;/span&gt;" style="html=1;" parent="1" vertex="1"><mxGeometry x="-1070" y="-920" width="290" height="50" as="geometry"/></mxCell></root></mxGraphModel></diagram></mxfile>